PathFileType	4	(X/Y/Z)	/Users/itak/Documents/Research/Walk-IL/dataset/trc/00555_00009.trc
DataRate	CameraRate	NumFrames	NumMarkers	Units	OrigDataRate	OrigDataStartFrame	OrigNumFrames
100.000000	100.000000	4	56	mm	100.000000	46	372
Frame#	Time	RPSI			LPSI			L3			STRN			T10			C7			CLAV			RBAK			LBAK			LSHO			LUPA			LAEL			LAOL			LWTS			LWPS			LFRA			LIFD			LHPS			LHTS			RSHO			RUPA			RAEL			RAOL			RWTS			RWPS			RFRA			RIFD			RHTS			RHPS			RBHD			LFHD			RFHD			LBHD			LHIP			RHIP			RASI			LASI			LKNE			LTHI			LANK			LTIP			LTOE			LMT1			LMT5			LHEE			RKNE			RTHI			RANK			RTIP			RTOE			RMT1			RMT5			RHEE			*53			*54			*55			
		X1	Y1	Z1	X2	Y2	Z2	X3	Y3	Z3	X4	Y4	Z4	X5	Y5	Z5	X6	Y6	Z6	X7	Y7	Z7	X8	Y8	Z8	X9	Y9	Z9	X10	Y10	Z10	X11	Y11	Z11	X12	Y12	Z12	X13	Y13	Z13	X14	Y14	Z14	X15	Y15	Z15	X16	Y16	Z16	X17	Y17	Z17	X18	Y18	Z18	X19	Y19	Z19	X20	Y20	Z20	X21	Y21	Z21	X22	Y22	Z22	X23	Y23	Z23	X24	Y24	Z24	X25	Y25	Z25	X26	Y26	Z26	X27	Y27	Z27	X28	Y28	Z28	X29	Y29	Z29	X30	Y30	Z30	X31	Y31	Z31	X32	Y32	Z32	X33	Y33	Z33	X34	Y34	Z34	X35	Y35	Z35	X36	Y36	Z36	X37	Y37	Z37	X38	Y38	Z38	X39	Y39	Z39	X40	Y40	Z40	X41	Y41	Z41	X42	Y42	Z42	X43	Y43	Z43	X44	Y44	Z44	X45	Y45	Z45	X46	Y46	Z46	X47	Y47	Z47	X48	Y48	Z48	X49	Y49	Z49	X50	Y50	Z50	X51	Y51	Z51	X52	Y52	Z52	X53	Y53	Z53	X54	Y54	Z54	X55	Y55	Z55	X56	Y56	Z56	

47	0.46	-1190.407348632812	1013.555908203125	108.6775894165039	-1155.5185546875	1017.246398925781	-19.17943572998047	-1166.056518554688	1106.50732421875	43.13348770141602	-936.8080444335938	1296.9931640625	82.86158752441406	-1174.249267578125	1232.972045898438	40.09277725219727	-1130.076293945312	1506.303588867188	62.80802154541016	-955.4278564453125	1408.066528320312	80.77255249023438	-1214.999755859375	1380.427978515625	131.9929962158203	-1149.641479492188	1454.913208007812	-31.84202194213867	-1041.550537109375	1485.683349609375	-96.12749481201172	-1037.130981445312	1359.415893554688	-176.9214019775391	-1000.906433105469	1138.993286132812	-188.4711456298828	-1098.133911132812	1127.4970703125	-164.2682495117188	-920.6638793945312	901.0486450195312	-109.4902420043945	-938.1509399414062	875.44580078125	-190.4492340087891	-973.9520874023438	1053.3642578125	-186.2387084960938	-915.3328247070312	736.492431640625	-105.5793838500977	-927.0494995117188	817.036865234375	-179.0008697509766	-893.4931030273438	826.4298706054688	-120.3763656616211	-1099.734252929688	1469.943969726562	222.2324523925781	-1131.178344726562	1405.716674804688	284.435302734375	-1140.588134765625	1118.565063476562	332.9493713378906	-1191.32275390625	1100.897338867188	299.2688598632812	-1000.492309570312	899.5919189453125	305.5876159667969	-1052.015258789062	879.0067749023438	368.0069274902344	-1129.394775390625	1062.98876953125	339.9384765625	-991.6919555664062	728.7012329101562	306.391845703125	-971.4955444335938	808.8128051757812	324.4244079589844	-1032.701904296875	804.7877807617188	368.076904296875	-1050.858642578125	1688.95556640625	142.8802642822266	-871.8624267578125	1699.367065429688	37.96957778930664	-914.6884155273438	1696.078857421875	175.8987884521484	-995.134521484375	1690.459106445312	-13.16558074951172	-999.0380249023438	936.4107055664062	-115.7720413208008	-1097.953369140625	939.1138305664062	252.8620147705078	-999.3576049804688	971.090576171875	218.4522857666016	-934.9825439453125	965.3370361328125	-51.38076019287109	-991.757568359375	493.7112731933594	-46.81750869750977	-983.0282592773438	659.7134399414062	-85.61189270019531	-1093.445434570312	31.8652400970459	-50.65132141113281	-1064.24609375	250.083984375	-60.29724502563477	-900.8912963867188	38.52479553222656	50.1466178894043	-978.7108764648438	40.21541213989258	70.08344268798828	-970.9671630859375	34.09370803833008	-38.81621551513672	-1173.247192382812	34.07815551757812	-12.5558032989502	-1039.375610351562	496.7051391601562	225.9189147949219	-1054.060302734375	786.923095703125	263.9364318847656	-1166.278198242188	36.19016265869141	201.0744934082031	-1046.361083984375	350.3028259277344	214.71435546875	-940.981689453125	38.82505798339844	197.2763061523438	-997.581298828125	38.41978073120117	145.7919311523438	-1036.511474609375	37.59843063354492	241.5561065673828	-1211.462158203125	25.54785919189453	137.7952270507812	nan	nan	nan	nan	nan	nan	nan	nan	nan	
48	0.47	-1190.419311523438	1013.569946289062	108.6370468139648	-1155.538696289062	1017.259338378906	-19.19250679016113	-1166.046875	1106.552490234375	43.08285903930664	-936.7628784179688	1296.975219726562	82.86327362060547	-1174.255615234375	1232.990600585938	40.10557556152344	-1129.985473632812	1506.328735351562	62.80125045776367	-955.310302734375	1408.041870117188	80.79219055175781	-1214.90087890625	1380.474243164062	131.9800872802734	-1149.53076171875	1454.967407226562	-31.87788200378418	-1041.41455078125	1485.729125976562	-96.11445617675781	-1036.949951171875	1359.485717773438	-176.9284057617188	-1000.756958007812	1138.995239257812	-188.4439086914062	-1098.0498046875	1127.53466796875	-164.3226776123047	-920.6565551757812	901.078125	-109.4193344116211	-938.0468139648438	875.44189453125	-190.3519134521484	-973.8533935546875	1053.378784179688	-186.1773223876953	-915.2724609375	736.6558227539062	-105.3388442993164	-926.9851684570312	817.0613403320312	-178.8684692382812	-893.3309936523438	826.5014038085938	-120.3170471191406	-1099.627563476562	1469.93994140625	222.2198181152344	-1131.07568359375	1405.72509765625	284.4052734375	-1140.56982421875	1118.559326171875	332.9237060546875	-1191.279418945312	1100.907348632812	299.2160339355469	-1000.443786621094	899.572021484375	305.4633483886719	-1052.027099609375	878.9827880859375	367.9358215332031	-1129.376342773438	1062.982177734375	339.8910217285156	-991.7646484375	728.6836547851562	306.3549499511719	-971.5097045898438	808.753662109375	324.2509155273438	-1032.751708984375	804.7561645507812	368.01953125	-1050.62353515625	1688.94189453125	142.8813934326172	-871.6528930664062	1699.298095703125	38.01490783691406	-914.40283203125	1695.982666015625	175.9344787597656	-994.9144897460938	1690.48291015625	-13.17610836029053	-999.092041015625	936.4493408203125	-115.8509750366211	-1098.013671875	939.1449584960938	252.8704376220703	-999.410400390625	971.0747680664062	218.4207916259766	-934.9476318359375	965.3089599609375	-51.41064834594727	-991.7013549804688	493.7078552246094	-46.82772064208984	-983.0116577148438	659.7047729492188	-85.60987091064453	-1093.446655273438	31.86735534667969	-50.65090179443359	-1064.217529296875	250.0738372802734	-60.28759002685547	-900.8928833007812	38.52556228637695	50.15104675292969	-978.7139892578125	40.21460342407227	70.09400177001953	-970.9679565429688	34.09286499023438	-38.81658935546875	-1173.248046875	34.08412933349609	-12.55442333221436	-1039.397216796875	496.7065124511719	225.8923797607422	-1054.1103515625	786.9258422851562	263.913330078125	-1166.277709960938	36.18947601318359	201.0727233886719	-1046.371948242188	350.3075866699219	214.7021942138672	-940.9808349609375	38.8248176574707	197.2781372070312	-997.5658569335938	38.40781784057617	145.7704620361328	-1036.510009765625	37.59767150878906	241.5514221191406	-1211.469970703125	25.55633735656738	137.8140106201172	nan	nan	nan	nan	nan	nan	nan	nan	nan	
49	0.48	-1190.429565429688	1013.586120605469	108.5975875854492	-1155.556518554688	1017.275390625	-19.20301246643066	-1166.027954101562	1106.597778320312	43.02335739135742	-936.72119140625	1296.958374023438	82.86161041259766	-1174.259887695312	1233.010620117188	40.11447525024414	-1129.893676757812	1506.353881835938	62.79232406616211	-955.1863403320312	1408.015869140625	80.80452728271484	-1214.798095703125	1380.521728515625	131.9594421386719	-1149.415283203125	1455.02001953125	-31.9238452911377	-1041.275390625	1485.7783203125	-96.10784149169922	-1036.77685546875	1359.556640625	-176.9515075683594	-1000.610473632812	1138.9951171875	-188.4435424804688	-1097.97216796875	1127.568969726562	-164.3925018310547	-920.6533813476562	901.1056518554688	-109.3761901855469	-937.9623413085938	875.4450073242188	-190.2814178466797	-973.7572631835938	1053.391723632812	-186.1527099609375	-915.2119140625	736.8295288085938	-105.1340103149414	-926.9200439453125	817.0960083007812	-178.7702484130859	-893.170654296875	826.5831298828125	-120.2910232543945	-1099.517944335938	1469.942016601562	222.1986541748047	-1130.96728515625	1405.736328125	284.3649597167969	-1140.538940429688	1118.557495117188	332.88232421875	-1191.233764648438	1100.924926757812	299.1574401855469	-1000.411254882812	899.5440673828125	305.3575439453125	-1052.045654296875	878.962890625	367.8666687011719	-1129.354736328125	1062.98046875	339.8346862792969	-991.86474609375	728.6591796875	306.3447265625	-971.5421752929688	808.688720703125	324.0766906738281	-1032.809814453125	804.7235107421875	367.9660949707031	-1050.393310546875	1688.9267578125	142.8721466064453	-871.4492797851562	1699.237182617188	38.06061935424805	-914.1326904296875	1695.899291992188	175.9743041992188	-994.701904296875	1690.509399414062	-13.18759727478027	-999.0855712890625	936.4586181640625	-115.8940887451172	-1098.082397460938	939.1818237304688	252.8914031982422	-999.4387817382812	971.0763549804688	218.3881530761719	-934.9202880859375	965.2951049804688	-51.4295768737793	-991.646728515625	493.70556640625	-46.83081817626953	-982.9947509765625	659.6942749023438	-85.60497283935547	-1093.448364257812	31.87076377868652	-50.65008926391602	-1064.189331054688	250.0660095214844	-60.27745056152344	-900.89453125	38.52685165405273	50.15551376342773	-978.7191162109375	40.21482849121094	70.10740661621094	-970.9695434570312	34.0918083190918	-38.81726837158203	-1173.248291015625	34.09115982055664	-12.55389308929443	-1039.419677734375	496.7065124511719	225.8639984130859	-1054.159423828125	786.9286499023438	263.8927307128906	-1166.277709960938	36.18907165527344	201.0708465576172	-1046.3837890625	350.3143005371094	214.6908721923828	-940.9793090820312	38.82478713989258	197.2804565429688	-997.5404663085938	38.38957214355469	145.7397003173828	-1036.507690429688	37.59495162963867	241.5445709228516	-1211.478271484375	25.56758308410645	137.8355407714844	nan	nan	nan	nan	nan	nan	nan	nan	nan	
50	0.49	-1190.43798828125	1013.604675292969	108.5591506958008	-1155.570678710938	1017.2939453125	-19.21090507507324	-1165.998779296875	1106.641723632812	42.95431518554688	-936.6807861328125	1296.94287109375	82.85551452636719	-1174.26025390625	1233.033569335938	40.11769104003906	-1129.79736328125	1506.380126953125	62.77908325195312	-955.0545043945312	1407.990356445312	80.80945587158203	-1214.693603515625	1380.569580078125	131.9326477050781	-1149.295654296875	1455.069213867188	-31.97903633117676	-1041.13623046875	1485.826782226562	-96.10919189453125	-1036.61669921875	1359.62255859375	-176.9889678955078	-1000.469543457031	1138.994750976562	-188.4687805175781	-1097.899658203125	1127.596069335938	-164.4754486083984	-920.645263671875	901.1328735351562	-109.3570785522461	-937.8993530273438	875.455810546875	-190.2378845214844	-973.6622314453125	1053.4052734375	-186.1662445068359	-915.187744140625	736.9880981445312	-104.9490127563477	-926.861328125	817.1354370117188	-178.7113494873047	-893.049072265625	826.6500854492188	-120.2814254760742	-1099.406127929688	1469.952392578125	222.1714477539062	-1130.851806640625	1405.75	284.3163757324219	-1140.487426757812	1118.55908203125	332.8181457519531	-1191.18505859375	1100.9501953125	299.0930786132812	-1000.396850585938	899.510498046875	305.2703857421875	-1052.072021484375	878.94775390625	367.8012084960938	-1129.328002929688	1062.984619140625	339.7693176269531	-991.9874877929688	728.6266479492188	306.3493347167969	-971.5944213867188	808.6151733398438	323.906982421875	-1032.882080078125	804.6920166015625	367.9217529296875	-1050.167846679688	1688.910888671875	142.8554840087891	-871.2490234375	1699.182739257812	38.10404968261719	-913.876220703125	1695.825073242188	176.0131683349609	-994.5029296875	1690.536499023438	-13.19625759124756	-999.0313110351562	936.4524536132812	-115.9118804931641	-1098.156616210938	939.22314453125	252.9220123291016	-999.445068359375	971.0938110351562	218.3540191650391	-934.8955078125	965.291259765625	-51.44161605834961	-991.5946044921875	493.7054748535156	-46.82761001586914	-982.9771728515625	659.6819458007812	-85.59748840332031	-1093.449951171875	31.87457847595215	-50.64888381958008	-1064.1640625	250.0607757568359	-60.26778793334961	-900.896240234375	38.52849578857422	50.1599006652832	-978.7312622070312	40.21729278564453	70.12944030761719	-970.9718627929688	34.09056854248047	-38.81801986694336	-1173.247680664062	34.09856414794922	-12.55465602874756	-1039.442504882812	496.7048645019531	225.8335113525391	-1054.20703125	786.9324340820312	263.8752136230469	-1166.278198242188	36.18912506103516	201.0691986083984	-1046.39697265625	350.322998046875	214.6814422607422	-940.977294921875	38.82489013671875	197.2831878662109	-997.5056762695312	38.36541366577148	145.7025909423828	-1036.505249023438	37.59107971191406	241.5372772216797	-1211.48583984375	25.57847595214844	137.8566284179688	nan	nan	nan	nan	nan	nan	nan	nan	nan	
